<svg xmlns="http://www.w3.org/2000/svg" width="36" height="33" fill="none"><path d="M1.286 6.607h33.43c.7 0 1.286-.576 1.286-1.286V2.107c0-.7-.576-1.286-1.286-1.286H1.286C.576.82 0 1.397 0 2.107V5.32c0 .7.576 1.286 1.286 1.286zm0 12.857h33.43c.7 0 1.286-.576 1.286-1.286v-3.214c0-.7-.576-1.286-1.286-1.286H1.286c-.7 0-1.286.576-1.286 1.286v3.214c0 .7.576 1.286 1.286 1.286zm0 12.857h33.43c.7 0 1.286-.576 1.286-1.286V27.82c0-.7-.576-1.286-1.286-1.286H1.286c-.7 0-1.286.576-1.286 1.286v3.214c0 .7.576 1.286 1.286 1.286z" fill="#fff"/></svg>